<mxfile host="Electron" agent="Mozilla/5.0 (Windows NT 10.0; Win64; x64) AppleWebKit/537.36 (KHTML, like Gecko) draw.io/24.7.5 Chrome/126.0.6478.183 Electron/31.3.0 Safari/537.36" version="24.7.5">
  <diagram name="Page-1" id="c8-tYnlZpgsZ4M7Rtrp4">
    <mxGraphModel dx="1434" dy="836" grid="0" gridSize="10" guides="1" tooltips="1" connect="1" arrows="0" fold="1" page="1" pageScale="1" pageWidth="1100" pageHeight="850" math="0" shadow="0">
      <root>
        <mxCell id="0" />
        <mxCell id="1" parent="0" />
        <mxCell id="67uAg8ShTSvBk359kNAR-3" style="edgeStyle=orthogonalEdgeStyle;rounded=0;orthogonalLoop=1;jettySize=auto;html=1;exitX=1;exitY=0.5;exitDx=0;exitDy=0;exitPerimeter=0;entryX=0.225;entryY=0.5;entryDx=0;entryDy=0;entryPerimeter=0;endArrow=none;endFill=0;" parent="1" source="67uAg8ShTSvBk359kNAR-1" target="67uAg8ShTSvBk359kNAR-2" edge="1">
          <mxGeometry relative="1" as="geometry" />
        </mxCell>
        <mxCell id="67uAg8ShTSvBk359kNAR-1" value="" style="fontColor=#0066CC;verticalAlign=top;verticalLabelPosition=bottom;labelPosition=center;align=center;html=1;outlineConnect=0;fillColor=#CCCCCC;strokeColor=#6881B3;gradientColor=none;gradientDirection=north;strokeWidth=2;shape=mxgraph.networks.pc;aspect=fixed;" parent="1" vertex="1">
          <mxGeometry x="79" y="250" width="71.43" height="50" as="geometry" />
        </mxCell>
        <mxCell id="67uAg8ShTSvBk359kNAR-8" style="edgeStyle=orthogonalEdgeStyle;rounded=0;orthogonalLoop=1;jettySize=auto;html=1;exitX=0.875;exitY=0.5;exitDx=0;exitDy=0;exitPerimeter=0;entryX=0.4;entryY=0.5;entryDx=0;entryDy=0;entryPerimeter=0;endArrow=none;endFill=0;" parent="1" source="67uAg8ShTSvBk359kNAR-2" target="67uAg8ShTSvBk359kNAR-5" edge="1">
          <mxGeometry relative="1" as="geometry" />
        </mxCell>
        <mxCell id="67uAg8ShTSvBk359kNAR-4" value="MTPutty VM" style="text;html=1;strokeColor=none;fillColor=none;align=center;verticalAlign=middle;whiteSpace=wrap;rounded=0;fontColor=#FF0000;" parent="1" vertex="1">
          <mxGeometry x="75.70999999999998" y="309" width="78" height="30" as="geometry" />
        </mxCell>
        <mxCell id="67uAg8ShTSvBk359kNAR-9" style="edgeStyle=orthogonalEdgeStyle;rounded=0;orthogonalLoop=1;jettySize=auto;html=1;exitX=0.417;exitY=0.483;exitDx=0;exitDy=0;exitPerimeter=0;entryX=0.5;entryY=0.513;entryDx=0;entryDy=0;entryPerimeter=0;endArrow=none;endFill=0;" parent="1" source="67uAg8ShTSvBk359kNAR-5" target="67uAg8ShTSvBk359kNAR-7" edge="1">
          <mxGeometry relative="1" as="geometry" />
        </mxCell>
        <mxCell id="67uAg8ShTSvBk359kNAR-5" value="" style="sketch=0;points=[[0.5,0,0],[1,0.5,0],[0.5,1,0],[0,0.5,0],[0.145,0.145,0],[0.8555,0.145,0],[0.855,0.8555,0],[0.145,0.855,0]];verticalLabelPosition=bottom;html=1;verticalAlign=top;aspect=fixed;align=center;pointerEvents=1;shape=mxgraph.cisco19.rect;prIcon=router_with_firewall;fillColor=#FAFAFA;strokeColor=#005073;" parent="1" vertex="1">
          <mxGeometry x="833" y="250" width="50" height="50" as="geometry" />
        </mxCell>
        <mxCell id="67uAg8ShTSvBk359kNAR-6" value="edge firewall" style="text;html=1;strokeColor=none;fillColor=none;align=center;verticalAlign=middle;whiteSpace=wrap;rounded=0;" parent="1" vertex="1">
          <mxGeometry x="797.5" y="306" width="121" height="30" as="geometry" />
        </mxCell>
        <mxCell id="67uAg8ShTSvBk359kNAR-7" value="Internet" style="ellipse;shape=cloud;whiteSpace=wrap;html=1;" parent="1" vertex="1">
          <mxGeometry x="942" y="233" width="120" height="80" as="geometry" />
        </mxCell>
        <mxCell id="67uAg8ShTSvBk359kNAR-16" style="edgeStyle=orthogonalEdgeStyle;rounded=0;orthogonalLoop=1;jettySize=auto;html=1;exitX=0.299;exitY=0.318;exitDx=0;exitDy=0;exitPerimeter=0;entryX=0.68;entryY=0.5;entryDx=0;entryDy=0;entryPerimeter=0;endArrow=none;endFill=0;" parent="1" source="67uAg8ShTSvBk359kNAR-11" target="67uAg8ShTSvBk359kNAR-10" edge="1">
          <mxGeometry relative="1" as="geometry">
            <Array as="points">
              <mxPoint x="860" y="518" />
              <mxPoint x="859" y="518" />
              <mxPoint x="859" y="421" />
            </Array>
          </mxGeometry>
        </mxCell>
        <mxCell id="67uAg8ShTSvBk359kNAR-11" value="" style="sketch=0;points=[[0.015,0.015,0],[0.985,0.015,0],[0.985,0.985,0],[0.015,0.985,0],[0.25,0,0],[0.5,0,0],[0.75,0,0],[1,0.25,0],[1,0.5,0],[1,0.75,0],[0.75,1,0],[0.5,1,0],[0.25,1,0],[0,0.75,0],[0,0.5,0],[0,0.25,0]];verticalLabelPosition=bottom;html=1;verticalAlign=top;aspect=fixed;align=center;pointerEvents=1;shape=mxgraph.cisco19.rect;prIcon=l2_switch;fillColor=#FAFAFA;strokeColor=#005073;" parent="1" vertex="1">
          <mxGeometry x="845" y="505" width="50" height="50" as="geometry" />
        </mxCell>
        <mxCell id="67uAg8ShTSvBk359kNAR-17" style="edgeStyle=orthogonalEdgeStyle;rounded=0;orthogonalLoop=1;jettySize=auto;html=1;exitX=0;exitY=0.5;exitDx=0;exitDy=0;exitPerimeter=0;entryX=0.985;entryY=0.985;entryDx=0;entryDy=0;entryPerimeter=0;endArrow=none;endFill=0;" parent="1" source="67uAg8ShTSvBk359kNAR-12" target="67uAg8ShTSvBk359kNAR-10" edge="1">
          <mxGeometry relative="1" as="geometry" />
        </mxCell>
        <mxCell id="67uAg8ShTSvBk359kNAR-12" value="" style="sketch=0;points=[[0.015,0.015,0],[0.985,0.015,0],[0.985,0.985,0],[0.015,0.985,0],[0.25,0,0],[0.5,0,0],[0.75,0,0],[1,0.25,0],[1,0.5,0],[1,0.75,0],[0.75,1,0],[0.5,1,0],[0.25,1,0],[0,0.75,0],[0,0.5,0],[0,0.25,0]];verticalLabelPosition=bottom;html=1;verticalAlign=top;aspect=fixed;align=center;pointerEvents=1;shape=mxgraph.cisco19.rect;prIcon=l2_switch;fillColor=#FAFAFA;strokeColor=#005073;" parent="1" vertex="1">
          <mxGeometry x="845" y="676" width="50" height="50" as="geometry" />
        </mxCell>
        <mxCell id="67uAg8ShTSvBk359kNAR-15" style="rounded=0;orthogonalLoop=1;jettySize=auto;html=1;exitX=0.512;exitY=0.401;exitDx=0;exitDy=0;exitPerimeter=0;entryX=0.257;entryY=0.47;entryDx=0;entryDy=0;entryPerimeter=0;endArrow=none;endFill=0;edgeStyle=orthogonalEdgeStyle;" parent="1" source="67uAg8ShTSvBk359kNAR-13" target="67uAg8ShTSvBk359kNAR-10" edge="1">
          <mxGeometry relative="1" as="geometry">
            <Array as="points">
              <mxPoint x="250" y="512" />
              <mxPoint x="249" y="420" />
            </Array>
          </mxGeometry>
        </mxCell>
        <mxCell id="67uAg8ShTSvBk359kNAR-13" value="" style="sketch=0;points=[[0.5,0,0],[1,0.5,0],[0.5,1,0],[0,0.5,0],[0.145,0.145,0],[0.8555,0.145,0],[0.855,0.8555,0],[0.145,0.855,0]];verticalLabelPosition=bottom;html=1;verticalAlign=top;aspect=fixed;align=center;pointerEvents=1;shape=mxgraph.cisco19.rect;prIcon=router;fillColor=#FAFAFA;strokeColor=#005073;" parent="1" vertex="1">
          <mxGeometry x="224" y="505" width="50" height="50" as="geometry" />
        </mxCell>
        <mxCell id="67uAg8ShTSvBk359kNAR-18" style="edgeStyle=orthogonalEdgeStyle;rounded=0;orthogonalLoop=1;jettySize=auto;html=1;exitX=0.443;exitY=0.526;exitDx=0;exitDy=0;exitPerimeter=0;entryX=0.015;entryY=0.985;entryDx=0;entryDy=0;entryPerimeter=0;endArrow=none;endFill=0;" parent="1" source="67uAg8ShTSvBk359kNAR-14" target="67uAg8ShTSvBk359kNAR-10" edge="1">
          <mxGeometry relative="1" as="geometry" />
        </mxCell>
        <mxCell id="67uAg8ShTSvBk359kNAR-14" value="" style="sketch=0;points=[[0.5,0,0],[1,0.5,0],[0.5,1,0],[0,0.5,0],[0.145,0.145,0],[0.8555,0.145,0],[0.855,0.8555,0],[0.145,0.855,0]];verticalLabelPosition=bottom;html=1;verticalAlign=top;aspect=fixed;align=center;pointerEvents=1;shape=mxgraph.cisco19.rect;prIcon=router;fillColor=#FAFAFA;strokeColor=#005073;" parent="1" vertex="1">
          <mxGeometry x="224" y="676" width="50" height="50" as="geometry" />
        </mxCell>
        <mxCell id="67uAg8ShTSvBk359kNAR-19" style="edgeStyle=orthogonalEdgeStyle;rounded=0;orthogonalLoop=1;jettySize=auto;html=1;exitX=0.5;exitY=0;exitDx=0;exitDy=0;exitPerimeter=0;entryX=0.502;entryY=0.763;entryDx=0;entryDy=0;entryPerimeter=0;endArrow=none;endFill=0;" parent="1" source="67uAg8ShTSvBk359kNAR-10" target="67uAg8ShTSvBk359kNAR-2" edge="1">
          <mxGeometry relative="1" as="geometry" />
        </mxCell>
        <mxCell id="67uAg8ShTSvBk359kNAR-10" value="" style="sketch=0;points=[[0.015,0.015,0],[0.985,0.015,0],[0.985,0.985,0],[0.015,0.985,0],[0.25,0,0],[0.5,0,0],[0.75,0,0],[1,0.25,0],[1,0.5,0],[1,0.75,0],[0.75,1,0],[0.5,1,0],[0.25,1,0],[0,0.75,0],[0,0.5,0],[0,0.25,0]];verticalLabelPosition=bottom;html=1;verticalAlign=top;aspect=fixed;align=center;pointerEvents=1;shape=mxgraph.cisco19.rect;prIcon=l3_switch;fillColor=#FAFAFA;strokeColor=#005073;" parent="1" vertex="1">
          <mxGeometry x="525" y="396" width="50" height="50" as="geometry" />
        </mxCell>
        <mxCell id="67uAg8ShTSvBk359kNAR-2" value="CML bridge" style="ellipse;shape=cloud;whiteSpace=wrap;html=1;" parent="1" vertex="1">
          <mxGeometry x="490" y="235" width="120" height="80" as="geometry" />
        </mxCell>
        <mxCell id="67uAg8ShTSvBk359kNAR-20" value="" style="shape=flexArrow;endArrow=classic;startArrow=classic;html=1;rounded=0;" parent="1" edge="1">
          <mxGeometry width="100" height="100" relative="1" as="geometry">
            <mxPoint x="185" y="308" as="sourcePoint" />
            <mxPoint x="517" y="394" as="targetPoint" />
          </mxGeometry>
        </mxCell>
        <mxCell id="67uAg8ShTSvBk359kNAR-22" value="Default Route" style="edgeLabel;html=1;align=center;verticalAlign=middle;resizable=0;points=[];" parent="67uAg8ShTSvBk359kNAR-20" vertex="1" connectable="0">
          <mxGeometry x="0.2596" y="1" relative="1" as="geometry">
            <mxPoint as="offset" />
          </mxGeometry>
        </mxCell>
        <mxCell id="67uAg8ShTSvBk359kNAR-21" value="" style="shape=flexArrow;endArrow=classic;startArrow=classic;html=1;rounded=0;" parent="1" edge="1">
          <mxGeometry width="100" height="100" relative="1" as="geometry">
            <mxPoint x="578" y="394" as="sourcePoint" />
            <mxPoint x="814" y="300" as="targetPoint" />
          </mxGeometry>
        </mxCell>
        <mxCell id="67uAg8ShTSvBk359kNAR-23" value="Default Route" style="edgeLabel;html=1;align=center;verticalAlign=middle;resizable=0;points=[];" parent="67uAg8ShTSvBk359kNAR-21" vertex="1" connectable="0">
          <mxGeometry x="-0.1187" relative="1" as="geometry">
            <mxPoint y="-1" as="offset" />
          </mxGeometry>
        </mxCell>
        <mxCell id="67uAg8ShTSvBk359kNAR-24" value="VLAN 10: 10.10.0.254/24" style="text;html=1;strokeColor=none;fillColor=none;align=center;verticalAlign=middle;whiteSpace=wrap;rounded=0;fontColor=#007FFF;" parent="1" vertex="1">
          <mxGeometry x="373" y="446" width="150" height="18" as="geometry" />
        </mxCell>
        <mxCell id="67uAg8ShTSvBk359kNAR-25" value="G0/0" style="text;html=1;strokeColor=none;fillColor=none;align=center;verticalAlign=middle;whiteSpace=wrap;rounded=0;fontColor=#FF00FF;" parent="1" vertex="1">
          <mxGeometry x="517" y="366" width="30" height="17" as="geometry" />
        </mxCell>
        <mxCell id="67uAg8ShTSvBk359kNAR-26" value="G0/1" style="text;html=1;strokeColor=none;fillColor=none;align=center;verticalAlign=middle;whiteSpace=wrap;rounded=0;fontColor=#FF00FF;" parent="1" vertex="1">
          <mxGeometry x="480" y="422" width="30" height="17" as="geometry" />
        </mxCell>
        <mxCell id="67uAg8ShTSvBk359kNAR-28" value="G0/2" style="text;html=1;strokeColor=none;fillColor=none;align=center;verticalAlign=middle;whiteSpace=wrap;rounded=0;fontColor=#FF00FF;" parent="1" vertex="1">
          <mxGeometry x="493" y="467" width="30" height="17" as="geometry" />
        </mxCell>
        <mxCell id="67uAg8ShTSvBk359kNAR-29" value="G0/3" style="text;html=1;strokeColor=none;fillColor=none;align=center;verticalAlign=middle;whiteSpace=wrap;rounded=0;fontColor=#FF00FF;" parent="1" vertex="1">
          <mxGeometry x="575" y="467" width="30" height="17" as="geometry" />
        </mxCell>
        <mxCell id="67uAg8ShTSvBk359kNAR-30" value="G1/0" style="text;html=1;strokeColor=none;fillColor=none;align=center;verticalAlign=middle;whiteSpace=wrap;rounded=0;fontColor=#FF00FF;" parent="1" vertex="1">
          <mxGeometry x="590" y="422" width="30" height="17" as="geometry" />
        </mxCell>
        <mxCell id="67uAg8ShTSvBk359kNAR-31" value="Trunk" style="text;html=1;strokeColor=none;fillColor=none;align=center;verticalAlign=middle;whiteSpace=wrap;rounded=0;" parent="1" vertex="1">
          <mxGeometry x="662" y="428" width="46" height="18" as="geometry" />
        </mxCell>
        <mxCell id="67uAg8ShTSvBk359kNAR-32" value="Trunk" style="text;html=1;strokeColor=none;fillColor=none;align=center;verticalAlign=middle;whiteSpace=wrap;rounded=0;" parent="1" vertex="1">
          <mxGeometry x="380" y="422" width="46" height="18" as="geometry" />
        </mxCell>
        <mxCell id="67uAg8ShTSvBk359kNAR-33" value="Trunk" style="text;html=1;strokeColor=none;fillColor=none;align=center;verticalAlign=middle;whiteSpace=wrap;rounded=0;" parent="1" vertex="1">
          <mxGeometry x="380" y="682" width="46" height="18" as="geometry" />
        </mxCell>
        <mxCell id="67uAg8ShTSvBk359kNAR-34" value="Trunk" style="text;html=1;strokeColor=none;fillColor=none;align=center;verticalAlign=middle;whiteSpace=wrap;rounded=0;" parent="1" vertex="1">
          <mxGeometry x="662" y="682" width="46" height="18" as="geometry" />
        </mxCell>
        <mxCell id="67uAg8ShTSvBk359kNAR-35" value="G0/0" style="text;html=1;strokeColor=none;fillColor=none;align=center;verticalAlign=middle;whiteSpace=wrap;rounded=0;fontColor=#FF00FF;" parent="1" vertex="1">
          <mxGeometry x="257" y="482" width="30" height="17" as="geometry" />
        </mxCell>
        <mxCell id="67uAg8ShTSvBk359kNAR-37" value="G0/0" style="text;html=1;strokeColor=none;fillColor=none;align=center;verticalAlign=middle;whiteSpace=wrap;rounded=0;fontColor=#FF00FF;" parent="1" vertex="1">
          <mxGeometry x="824" y="484" width="30" height="17" as="geometry" />
        </mxCell>
        <mxCell id="67uAg8ShTSvBk359kNAR-38" value="G0/0" style="text;html=1;strokeColor=none;fillColor=none;align=center;verticalAlign=middle;whiteSpace=wrap;rounded=0;fontColor=#FF00FF;" parent="1" vertex="1">
          <mxGeometry x="808" y="682" width="30" height="17" as="geometry" />
        </mxCell>
        <mxCell id="67uAg8ShTSvBk359kNAR-39" value="G0/0" style="text;html=1;strokeColor=none;fillColor=none;align=center;verticalAlign=middle;whiteSpace=wrap;rounded=0;fontColor=#FF00FF;" parent="1" vertex="1">
          <mxGeometry x="276" y="683" width="30" height="17" as="geometry" />
        </mxCell>
        <mxCell id="67uAg8ShTSvBk359kNAR-40" value="R1" style="text;html=1;strokeColor=none;fillColor=none;align=center;verticalAlign=middle;whiteSpace=wrap;rounded=0;fontColor=#FF0000;" parent="1" vertex="1">
          <mxGeometry x="234" y="560" width="30" height="17" as="geometry" />
        </mxCell>
        <mxCell id="67uAg8ShTSvBk359kNAR-41" value="R2" style="text;html=1;strokeColor=none;fillColor=none;align=center;verticalAlign=middle;whiteSpace=wrap;rounded=0;fontColor=#FF0000;" parent="1" vertex="1">
          <mxGeometry x="234" y="731" width="30" height="17" as="geometry" />
        </mxCell>
        <mxCell id="67uAg8ShTSvBk359kNAR-42" value="SW2" style="text;html=1;strokeColor=none;fillColor=none;align=center;verticalAlign=middle;whiteSpace=wrap;rounded=0;fontColor=#FF0000;" parent="1" vertex="1">
          <mxGeometry x="855" y="560" width="30" height="17" as="geometry" />
        </mxCell>
        <mxCell id="67uAg8ShTSvBk359kNAR-43" value="SW1" style="text;html=1;strokeColor=none;fillColor=none;align=center;verticalAlign=middle;whiteSpace=wrap;rounded=0;fontColor=#FF0000;" parent="1" vertex="1">
          <mxGeometry x="855" y="731" width="30" height="17" as="geometry" />
        </mxCell>
        <mxCell id="67uAg8ShTSvBk359kNAR-44" value="&lt;span style=&quot;font-weight: bold; font-size: 15px;&quot;&gt;Legends:&lt;/span&gt;&lt;br&gt;&lt;font style=&quot;font-weight: bold; font-size: 12px;&quot;&gt;&lt;br&gt;&lt;font color=&quot;#ff0000&quot;&gt;Red: Hostnames&lt;/font&gt;&lt;br&gt;&lt;/font&gt;&lt;b&gt;&lt;font color=&quot;#ff00ff&quot;&gt;Purple: Interfaces&lt;/font&gt;&lt;/b&gt;&lt;br&gt;&lt;b&gt;&lt;font color=&quot;#007fff&quot;&gt;Blue: IP addresses&lt;/font&gt;&lt;/b&gt;" style="text;html=1;strokeColor=none;fillColor=none;align=left;verticalAlign=top;whiteSpace=wrap;rounded=0;fontColor=default;" parent="1" vertex="1">
          <mxGeometry x="9" y="67" width="145" height="91" as="geometry" />
        </mxCell>
        <mxCell id="67uAg8ShTSvBk359kNAR-46" value="PFLAN_9: 10.253.8.0/24" style="text;html=1;strokeColor=none;fillColor=none;align=center;verticalAlign=middle;whiteSpace=wrap;rounded=0;" parent="1" vertex="1">
          <mxGeometry x="480" y="217" width="141" height="18" as="geometry" />
        </mxCell>
        <mxCell id="67uAg8ShTSvBk359kNAR-47" value="10.253.8.252/24" style="text;html=1;strokeColor=none;fillColor=none;align=center;verticalAlign=middle;whiteSpace=wrap;rounded=0;fontColor=#007FFF;" parent="1" vertex="1">
          <mxGeometry x="168" y="254" width="86" height="18" as="geometry" />
        </mxCell>
        <mxCell id="67uAg8ShTSvBk359kNAR-48" value="L3 routed port" style="text;html=1;strokeColor=none;fillColor=none;align=center;verticalAlign=middle;whiteSpace=wrap;rounded=0;" parent="1" vertex="1">
          <mxGeometry x="443.5" y="326" width="103" height="19" as="geometry" />
        </mxCell>
        <mxCell id="67uAg8ShTSvBk359kNAR-49" value="VLAN 10: 10.10.0.240/24" style="text;html=1;strokeColor=none;fillColor=none;align=center;verticalAlign=middle;whiteSpace=wrap;rounded=0;fontColor=#007FFF;" parent="1" vertex="1">
          <mxGeometry x="276" y="526" width="150" height="18" as="geometry" />
        </mxCell>
        <mxCell id="67uAg8ShTSvBk359kNAR-50" value="VLAN 10: 10.10.0.241/24" style="text;html=1;strokeColor=none;fillColor=none;align=center;verticalAlign=middle;whiteSpace=wrap;rounded=0;fontColor=#007FFF;" parent="1" vertex="1">
          <mxGeometry x="274" y="716" width="150" height="18" as="geometry" />
        </mxCell>
        <mxCell id="67uAg8ShTSvBk359kNAR-51" value="VLAN 10: 10.10.0.242/24" style="text;html=1;strokeColor=none;fillColor=none;align=center;verticalAlign=middle;whiteSpace=wrap;rounded=0;fontColor=#007FFF;" parent="1" vertex="1">
          <mxGeometry x="688" y="526" width="150" height="18" as="geometry" />
        </mxCell>
        <mxCell id="67uAg8ShTSvBk359kNAR-52" value="VLAN 10: 10.10.0.243/24" style="text;html=1;strokeColor=none;fillColor=none;align=center;verticalAlign=middle;whiteSpace=wrap;rounded=0;fontColor=#007FFF;" parent="1" vertex="1">
          <mxGeometry x="692" y="716" width="150" height="18" as="geometry" />
        </mxCell>
        <mxCell id="67uAg8ShTSvBk359kNAR-55" value="MTPutty Demo" style="text;strokeColor=none;fillColor=none;html=1;fontSize=24;fontStyle=1;verticalAlign=middle;align=center;" parent="1" vertex="1">
          <mxGeometry x="456" y="8" width="188" height="40" as="geometry" />
        </mxCell>
        <mxCell id="67uAg8ShTSvBk359kNAR-56" value="10.253.8.254/24" style="text;html=1;strokeColor=none;fillColor=none;align=center;verticalAlign=middle;whiteSpace=wrap;rounded=0;fontColor=#007FFF;" parent="1" vertex="1">
          <mxGeometry x="742" y="254" width="86" height="18" as="geometry" />
        </mxCell>
        <mxCell id="67uAg8ShTSvBk359kNAR-57" value="Author: Diyaa Alkanakre&lt;br&gt;Date: Jan 28th, 2023" style="text;html=1;strokeColor=none;fillColor=none;align=left;verticalAlign=top;whiteSpace=wrap;rounded=0;" parent="1" vertex="1">
          <mxGeometry x="9" y="14" width="159" height="38" as="geometry" />
        </mxCell>
        <mxCell id="67uAg8ShTSvBk359kNAR-59" value="BRDG-SW" style="text;html=1;strokeColor=none;fillColor=none;align=center;verticalAlign=middle;whiteSpace=wrap;rounded=0;fontColor=#FF0000;" parent="1" vertex="1">
          <mxGeometry x="581" y="446" width="63" height="17" as="geometry" />
        </mxCell>
        <mxCell id="67uAg8ShTSvBk359kNAR-60" value="&lt;span style=&quot;color: rgb(0, 127, 255); font-family: Helvetica; font-size: 12px; font-style: normal; font-variant-ligatures: normal; font-variant-caps: normal; font-weight: 400; letter-spacing: normal; orphans: 2; text-indent: 0px; text-transform: none; widows: 2; word-spacing: 0px; -webkit-text-stroke-width: 0px; background-color: rgb(251, 251, 251); text-decoration-thickness: initial; text-decoration-style: initial; text-decoration-color: initial; float: none; display: inline !important;&quot;&gt;10.253.8.253/24&lt;/span&gt;" style="text;whiteSpace=wrap;html=1;fontSize=12;fontColor=#007FFF;verticalAlign=middle;align=center;" parent="1" vertex="1">
          <mxGeometry x="552" y="331" width="87" height="20" as="geometry" />
        </mxCell>
      </root>
    </mxGraphModel>
  </diagram>
</mxfile>
